<svg xmlns="http://www.w3.org/2000/svg" viewBox="0 0 880 420" font-family="system-ui,-apple-system,sans-serif">
<rect width="880" height="420" fill="#fff"/>
<text x="440.0" y="28" text-anchor="middle" font-size="17" font-weight="700">Where the Prover Spends CPU Time</text>
<text x="220" y="48" text-anchor="middle" font-size="11" fill="#888">7,600 flamegraph samples · prove command</text>
<text x="187" y="77.0" text-anchor="end" font-size="11">ark_ff::mul_assign</text>
<rect x="195" y="60" width="290.3666666666667" height="26" rx="3" fill="#2563eb" opacity="0.85"/>
<text x="491.3666666666667" y="77.0" font-size="11" font-weight="600">28.1%</text>
<text x="187" y="110.0" text-anchor="end" font-size="11">Skyscraper hash</text>
<rect x="195" y="93" width="196.33333333333331" height="26" rx="3" fill="#f59e0b" opacity="0.85"/>
<text x="397.3333333333333" y="110.0" font-size="11" font-weight="600">19.0%</text>
<text x="187" y="143.0" text-anchor="end" font-size="11">NTT compute</text>
<rect x="195" y="126" width="157.06666666666663" height="26" rx="3" fill="#10b981" opacity="0.85"/>
<text x="358.0666666666666" y="143.0" font-size="11" font-weight="600">15.2%</text>
<text x="187" y="176.0" text-anchor="end" font-size="11">NTT transpose (mem-bound)</text>
<rect x="195" y="159" width="54.766666666666666" height="26" rx="3" fill="#6ee7b7" opacity="0.85"/>
<text x="255.76666666666665" y="176.0" font-size="11" font-weight="600">5.3%</text>
<text x="187" y="209.0" text-anchor="end" font-size="11">mixed_dot (weight fold)</text>
<rect x="195" y="192" width="63.033333333333324" height="26" rx="3" fill="#8b5cf6" opacity="0.85"/>
<text x="264.0333333333333" y="209.0" font-size="11" font-weight="600">6.1%</text>
<text x="187" y="242.0" text-anchor="end" font-size="11">Sumcheck prover</text>
<rect x="195" y="225" width="56.83333333333333" height="26" rx="3" fill="#ec4899" opacity="0.85"/>
<text x="257.8333333333333" y="242.0" font-size="11" font-weight="600">5.5%</text>
<text x="187" y="275.0" text-anchor="end" font-size="11">Sparse matrix / other</text>
<rect x="195" y="258" width="51.666666666666664" height="26" rx="3" fill="#06b6d4" opacity="0.85"/>
<text x="252.66666666666666" y="275.0" font-size="11" font-weight="600">5.0%</text>
<text x="187" y="308.0" text-anchor="end" font-size="11">I/O + OS overhead</text>
<rect x="195" y="291" width="163.26666666666668" height="26" rx="3" fill="#a3a3a3" opacity="0.85"/>
<text x="364.26666666666665" y="308.0" font-size="11" font-weight="600">15.8%</text>
<line x1="195.0" y1="327" x2="195.0" y2="333" stroke="#bbb" stroke-width="1"/>
<text x="195.0" y="345" text-anchor="middle" font-size="9" fill="#888">0%</text>
<line x1="298.3333333333333" y1="327" x2="298.3333333333333" y2="333" stroke="#bbb" stroke-width="1"/>
<text x="298.3333333333333" y="345" text-anchor="middle" font-size="9" fill="#888">10%</text>
<line x1="401.66666666666663" y1="327" x2="401.66666666666663" y2="333" stroke="#bbb" stroke-width="1"/>
<text x="401.66666666666663" y="345" text-anchor="middle" font-size="9" fill="#888">20%</text>
<line x1="505.0" y1="327" x2="505.0" y2="333" stroke="#bbb" stroke-width="1"/>
<text x="505.0" y="345" text-anchor="middle" font-size="9" fill="#888">30%</text>
<text x="660" y="55" text-anchor="middle" font-size="13" font-weight="600">Who calls mul_assign?</text>
<text x="660" y="72" text-anchor="middle" font-size="10" fill="#888">2,138 samples · Skyscraper = 0%</text>
<path d="M660,210 L660.0,90.0 A120,120 0 1 1 541.7,230.3 Z" fill="#10b981" stroke="#fff" stroke-width="2"/>
<text x="715" y="256" text-anchor="middle" font-size="12" font-weight="600" fill="#fff">72%</text>
<path d="M660,210 L541.7,230.3 A120,120 0 0 1 559.1,145.1 Z" fill="#8b5cf6" stroke="#fff" stroke-width="2"/>
<text x="589" y="196" text-anchor="middle" font-size="12" font-weight="600" fill="#fff">12%</text>
<path d="M660,210 L559.1,145.1 A120,120 0 0 1 606.9,102.4 Z" fill="#f59e0b" stroke="#fff" stroke-width="2"/>
<text x="612" y="156" text-anchor="middle" font-size="12" font-weight="600" fill="#fff">9%</text>
<path d="M660,210 L606.9,102.4 A120,120 0 0 1 637.5,92.1 Z" fill="#ec4899" stroke="#fff" stroke-width="2"/>
<text x="637" y="142" text-anchor="middle" font-size="10" font-weight="600" fill="#fff">4%</text>
<path d="M660,210 L637.5,92.1 A120,120 0 0 1 660.0,90.0 Z" fill="#a3a3a3" stroke="#fff" stroke-width="2"/>
<text x="653" y="138" text-anchor="middle" font-size="10" font-weight="600" fill="#fff">3%</text>
<rect x="575" y="336" width="12" height="12" rx="2" fill="#10b981"/>
<text x="592" y="346" font-size="10">NTT butterflies (72.3%)</text>
<rect x="575" y="354" width="12" height="12" rx="2" fill="#8b5cf6"/>
<text x="592" y="364" font-size="10">mixed_dot (11.8%)</text>
<rect x="575" y="372" width="12" height="12" rx="2" fill="#f59e0b"/>
<text x="592" y="382" font-size="10">geometric_accum (8.6%)</text>
<rect x="575" y="390" width="12" height="12" rx="2" fill="#ec4899"/>
<text x="592" y="400" font-size="10">Sumcheck (4.3%)</text>
<rect x="575" y="408" width="12" height="12" rx="2" fill="#a3a3a3"/>
<text x="592" y="418" font-size="10">Other (3.0%)</text>
<line x1="530" y1="50" x2="530" y2="400" stroke="#e5e7eb" stroke-width="1"/>
</svg>
