<svg xmlns="http://www.w3.org/2000/svg" viewBox="0 0 880 400" font-family="system-ui,-apple-system,sans-serif">
<rect width="880" height="400" fill="#fff"/>
<text x="440.0" y="28" text-anchor="middle" font-size="17" font-weight="700">Field Multiplication Speedup &amp; Proving Pipeline</text>
<text x="230" y="57" text-anchor="middle" font-size="12" font-weight="600">Impact of Halving ark_ff::mul_assign</text>
<rect x="65" y="148.63636363636363" width="55" height="146.36363636363637" rx="3" fill="#a3a3a3" opacity="0.85"/>
<text x="92.5" y="143.63636363636363" text-anchor="middle" font-size="10" font-weight="600">1400</text>
<rect x="125" y="71.27272727272725" width="55" height="223.72727272727275" rx="3" fill="#a3a3a3" opacity="0.35"/>
<text x="152.5" y="66.27272727272725" text-anchor="middle" font-size="10">2140</text>
<text x="122" y="311" text-anchor="middle" font-size="10">Current</text>
<rect x="205" y="173.72727272727275" width="55" height="121.27272727272727" rx="3" fill="#2563eb" opacity="0.85"/>
<text x="232.5" y="168.72727272727275" text-anchor="middle" font-size="10" font-weight="600">1160</text>
<rect x="265" y="96.36363636363637" width="55" height="198.63636363636363" rx="3" fill="#2563eb" opacity="0.35"/>
<text x="292.5" y="91.36363636363637" text-anchor="middle" font-size="10">1900</text>
<text x="262" y="311" text-anchor="middle" font-size="10">2× faster</text>
<text x="262" y="324" text-anchor="middle" font-size="10">mul_assign</text>
<rect x="345" y="198.8181818181818" width="55" height="96.18181818181817" rx="3" fill="#10b981" opacity="0.85"/>
<text x="372.5" y="193.8181818181818" text-anchor="middle" font-size="10" font-weight="600">920</text>
<rect x="405" y="121.45454545454547" width="55" height="173.54545454545453" rx="3" fill="#10b981" opacity="0.35"/>
<text x="432.5" y="116.45454545454547" text-anchor="middle" font-size="10">1660</text>
<text x="402" y="311" text-anchor="middle" font-size="10">∞ fast mul</text>
<text x="402" y="324" text-anchor="middle" font-size="10">(ceiling)</text>
<line x1="50" y1="295" x2="470" y2="295" stroke="#ddd" stroke-width="1"/>
<text x="45" y="299" text-anchor="end" font-size="9" fill="#888">0 ms</text>
<text x="45" y="245.72727272727272" text-anchor="end" font-size="9" fill="#888">500</text>
<line x1="50" y1="242.72727272727272" x2="470" y2="242.72727272727272" stroke="#f3f4f6" stroke-width="1"/>
<text x="45" y="193.45454545454544" text-anchor="end" font-size="9" fill="#888">1000</text>
<line x1="50" y1="190.45454545454544" x2="470" y2="190.45454545454544" stroke="#f3f4f6" stroke-width="1"/>
<text x="45" y="141.1818181818182" text-anchor="end" font-size="9" fill="#888">1500</text>
<line x1="50" y1="138.1818181818182" x2="470" y2="138.1818181818182" stroke="#f3f4f6" stroke-width="1"/>
<text x="45" y="88.9090909090909" text-anchor="end" font-size="9" fill="#888">2000</text>
<line x1="50" y1="85.9090909090909" x2="470" y2="85.9090909090909" stroke="#f3f4f6" stroke-width="1"/>
<rect x="50" y="337" width="10" height="10" rx="2" fill="#2563eb" opacity="0.85"/>
<text x="64" y="346" font-size="9">prove_with_witness (ms)</text>
<rect x="210" y="337" width="10" height="10" rx="2" fill="#2563eb" opacity="0.35"/>
<text x="224" y="346" font-size="9">total prove command (ms)</text>
<text x="275.0" y="355" text-anchor="middle" font-size="10" fill="#2563eb" font-weight="600">2× mul → 1.21× proving speedup (−240 ms)</text>
<text x="275.0" y="370" text-anchor="middle" font-size="10" fill="#10b981">∞ mul → 1.52× max (ceiling)</text>
<line x1="480" y1="50" x2="480" y2="385" stroke="#e5e7eb" stroke-width="1"/>
<text x="725.0" y="57" text-anchor="middle" font-size="12" font-weight="600">prove_with_witness Breakdown (1,400 ms)</text>
<text x="592" y="83.0" text-anchor="end" font-size="11">Witness gen</text>
<rect x="600" y="65" width="27.447552447552447" height="28" rx="3" fill="#2563eb" opacity="0.85"/>
<text x="632.4475524475524" y="83.0" font-size="10" font-weight="500">157 ms (11%)</text>
<text x="592" y="118.0" text-anchor="end" font-size="11">Solve w1</text>
<rect x="600" y="100" width="6.643356643356643" height="28" rx="3" fill="#f59e0b" opacity="0.85"/>
<text x="611.6433566433567" y="118.0" font-size="10" font-weight="500">38 ms (3%)</text>
<text x="592" y="153.0" text-anchor="end" font-size="11">Commit w1</text>
<rect x="600" y="135" width="32.16783216783217" height="28" rx="3" fill="#10b981" opacity="0.85"/>
<text x="637.1678321678322" y="153.0" font-size="10" font-weight="500">184 ms (13%)</text>
<text x="592" y="188.0" text-anchor="end" font-size="11">Solve w2</text>
<rect x="600" y="170" width="6.118881118881118" height="28" rx="3" fill="#ef4444" opacity="0.85"/>
<text x="611.1188811188811" y="188.0" font-size="10" font-weight="500">35 ms (2%)</text>
<text x="592" y="223.0" text-anchor="end" font-size="11">Commit w2</text>
<rect x="600" y="205" width="30.769230769230766" height="28" rx="3" fill="#8b5cf6" opacity="0.85"/>
<text x="635.7692307692307" y="223.0" font-size="10" font-weight="500">176 ms (12%)</text>
<text x="592" y="258.0" text-anchor="end" font-size="11">prove_noir</text>
<rect x="600" y="240" width="145.1048951048951" height="28" rx="3" fill="#ec4899" opacity="0.85"/>
<text x="750.1048951048951" y="258.0" font-size="10" font-weight="500">830 ms (58%)</text>
<text x="592" y="293.0" text-anchor="end" font-size="11">Serialize</text>
<rect x="600" y="275" width="3" height="28" rx="3" fill="#a3a3a3" opacity="0.85"/>
<text x="608" y="293.0" font-size="10" font-weight="500">10 (1%)</text>
</svg>
